<!DOCTYPE svg PUBLIC "-//W3C//DTD SVG 1.1//EN" "http://www.w3.org/Graphics/SVG/1.1/DTD/svg11.dtd">
<!-- Uploaded to: SVG Repo, www.svgrepo.com, Transformed by: SVG Repo Mixer Tools -->
<svg height="189px" width="189px" version="1.1" id="Layer_1" xmlns="http://www.w3.org/2000/svg" xmlns:xlink="http://www.w3.org/1999/xlink" viewBox="-68.69 -68.69 480.81 480.81" xml:space="preserve" fill="#99c3f2" transform="rotate(0)" stroke="#99c3f2" stroke-width="4.121184">
<g id="SVGRepo_bgCarrier" stroke-width="0"/>
<g id="SVGRepo_tracerCarrier" stroke-linecap="round" stroke-linejoin="round" stroke="#CCCCCC" stroke-width="0.686864"/>
<g id="SVGRepo_iconCarrier"> <g> <path style="fill:#5E96DC;" d="M298.035,151.536c0.159-2.158,0.242-4.338,0.242-6.536c0-48.412-39.245-87.658-87.657-87.658 c-29.496,0-55.589,14.569-71.477,36.903c-4.929-1.111-10.048-1.716-15.311-1.716c-33.779,0-61.909,24.133-68.122,56.095 C23.938,154.988,0,183.034,0,216.678c0,38.335,31.077,69.412,69.412,69.412H274.02c38.336,0,69.412-31.077,69.412-69.412 C343.432,186.785,324.534,161.31,298.035,151.536z"/> <polygon style="fill:#FFFFFF;" points="197.642,244.478 197.649,169.298 223.093,169.299 175.527,121.732 127.961,169.298 153.408,169.298 153.408,244.478 "/> </g> </g>
</svg>